<svg width="100" height="100" viewBox="0 0 100 100" fill="none" xmlns="http://www.w3.org/2000/svg">
<mask id="mask0_65_9153" style="mask-type:alpha" maskUnits="userSpaceOnUse" x="0" y="0" width="100" height="100">
<rect width="100" height="100" fill="#D9D9D9"/>
</mask>
<g mask="url(#mask0_65_9153)">
<path d="M50 49.7105C51.3274 47.9359 53.0209 46.4675 54.9657 45.405C56.9104 44.3425 59.061 43.7107 61.2714 43.5524C63.4818 43.3941 65.7004 43.713 67.7768 44.4875C69.8531 45.2621 71.7386 46.4741 73.3053 48.0414L82.578 57.314C85.3931 60.2288 86.9509 64.1326 86.9156 68.1847C86.8804 72.2368 85.2551 76.113 82.3897 78.9784C79.5243 81.8438 75.6482 83.4691 71.5961 83.5043C67.544 83.5395 63.6401 81.9818 60.7254 79.1666L55.4091 73.8812" stroke="#FFA800" stroke-width="8" stroke-linecap="round" stroke-linejoin="round"/>
<path d="M50 49.7104C48.6726 51.485 46.9791 52.9533 45.0343 54.0158C43.0895 55.0783 40.939 55.7102 38.7286 55.8685C36.5181 56.0268 34.2995 55.7079 32.2232 54.9333C30.1469 54.1588 28.2614 52.9468 26.6947 51.3795L17.422 42.1068C14.6068 39.1921 13.0491 35.2882 13.0843 31.2361C13.1195 27.184 14.7449 23.3078 17.6102 20.4425C20.4756 17.5771 24.3518 15.9518 28.4039 15.9165C32.456 15.8813 36.3598 17.4391 39.2746 20.2542L44.56 25.5396" stroke="#FFA800" stroke-width="8" stroke-linecap="round" stroke-linejoin="round"/>
<path d="M41.2578 40.9683L58.7425 58.453" stroke="#FFA800" stroke-width="8" stroke-linecap="round" stroke-linejoin="round"/>
</g>
</svg>
