<svg width="400" height="400" viewBox="0 0 400 400" fill="none" xmlns="http://www.w3.org/2000/svg">
<path d="M257.996 78.0099C257.996 78.0099 215.211 132.204 146.756 99.8775C78.3006 67.5513 9.84498 155.022 68.7928 208.265C127.741 261.508 70.0558 290.765 110.103 323.396C155.618 360.483 195.245 285.278 231.374 302.392C311.113 340.163 370.187 325.21 356.876 281.475C333.511 204.703 303.633 199.708 326.451 159.776C349.27 119.844 298.909 36.8145 257.996 78.0099Z" fill="#FFE8BC"/>
<path d="M234.703 227.895L231.323 246.042L215.223 332.307L186.222 326.892L204.817 227.241L205.702 222.493L234.703 227.895Z" fill="#FF9900"/>
<path d="M306.125 184.498L296.125 238.11C296.096 238.267 296.036 238.417 295.949 238.551C295.862 238.685 295.749 238.8 295.617 238.891C295.485 238.981 295.337 239.045 295.18 239.078C295.024 239.111 294.863 239.112 294.705 239.083L154.213 212.88L170.749 124.22L277.433 144.118C296.77 147.723 309.613 165.799 306.125 184.498Z" fill="#FFC56D"/>
<path d="M200.756 166.506L190.834 219.702L117.089 205.948L127.011 152.752C130.664 133.166 150.134 120.367 170.498 124.165C190.862 127.963 204.409 146.92 200.756 166.506Z" fill="#FF9900"/>
<path d="M235.088 191.374C229.654 190.36 226.068 185.078 227.091 179.594C228.115 174.109 233.363 170.474 238.797 171.488C240.529 171.813 242.145 172.592 243.478 173.744C244.812 174.896 245.817 176.381 246.391 178.048L315.037 190.851L313.183 200.794L244.537 187.991C243.401 189.339 241.928 190.362 240.268 190.956C238.609 191.551 236.821 191.695 235.088 191.374V191.374Z" fill="#E98D04"/>
<path d="M198.31 167.484L188.643 219.313L119.172 206.356L128.84 154.527C132.399 135.444 150.836 122.875 170.02 126.453C189.203 130.031 201.869 148.401 198.31 167.484Z" fill="#E98D04"/>
<path d="M237.034 186.351C239.828 186.351 242.092 184.087 242.092 181.293C242.092 178.5 239.828 176.236 237.034 176.236C234.241 176.236 231.977 178.5 231.977 181.293C231.977 184.087 234.241 186.351 237.034 186.351Z" fill="#F8F8F8"/>
<path d="M315.831 190.816L309.767 223.328C309.741 223.468 309.66 223.591 309.543 223.672C309.425 223.753 309.28 223.783 309.14 223.757L293.2 220.784C293.173 220.779 293.148 220.763 293.132 220.74C293.117 220.717 293.111 220.688 293.116 220.66L299.259 187.725C299.264 187.697 299.28 187.673 299.303 187.657C299.326 187.641 299.355 187.635 299.382 187.64L315.746 190.692C315.774 190.697 315.798 190.713 315.814 190.737C315.83 190.76 315.836 190.788 315.831 190.816V190.816Z" fill="#FF9900"/>
<path d="M142.162 187.757C142.833 192.695 148.252 198.564 148.252 198.564C139.995 199.149 135.524 194.48 133.6 191.643C131.221 192.33 128.776 192.764 126.306 192.937C109.356 194.139 94.7645 183.072 93.7107 168.208C92.6569 153.343 105.542 140.329 122.492 139.128C139.442 137.926 154.033 148.992 155.086 163.857C155.772 173.526 150.554 182.413 142.162 187.757Z" fill="#F8F8F8"/>
<path d="M190.906 219.735C190.138 221.678 176.102 279.557 130.678 271.085C80.8681 262.652 116.897 205.932 116.897 205.932L190.906 219.735Z" fill="#FFC56D"/>
<path d="M124.398 171.132C126.726 171.132 128.612 169.245 128.612 166.917C128.612 164.59 126.726 162.703 124.398 162.703C122.07 162.703 120.184 164.59 120.184 166.917C120.184 169.245 122.07 171.132 124.398 171.132Z" fill="#FF9900"/>
<path d="M105.531 169.294C107.872 169.294 109.771 167.396 109.771 165.054C109.771 162.712 107.872 160.814 105.531 160.814C103.189 160.814 101.291 162.712 101.291 165.054C101.291 167.396 103.189 169.294 105.531 169.294Z" fill="#FF9900"/>
<path d="M143.085 172.928C145.426 172.928 147.324 171.029 147.324 168.688C147.324 166.346 145.426 164.448 143.085 164.448C140.743 164.448 138.845 166.346 138.845 168.688C138.845 171.029 140.743 172.928 143.085 172.928Z" fill="#FF9900"/>
<path d="M234.703 227.895L231.323 246.043L204.817 227.241L205.702 222.493L234.703 227.895Z" fill="#E98D04"/>
</svg>
