<svg width="701" height="700" viewBox="0 0 701 700" fill="none" xmlns="http://www.w3.org/2000/svg">
<rect x="121" y="481" width="98" height="98" rx="19" fill="white" stroke="#FFA800" stroke-width="2"/>
<rect x="121" y="601" width="98" height="98" rx="19" fill="white" stroke="#FFA800" stroke-width="2"/>
<rect x="1.02661" y="481" width="98" height="98" rx="19" fill="white" stroke="#FFA800" stroke-width="2"/>
<rect x="1.02661" y="601" width="98" height="98" rx="19" fill="white" stroke="#FFA800" stroke-width="2"/>
<rect x="121.027" y="361" width="98" height="98" rx="19" fill="white" stroke="#FFA800" stroke-width="2"/>
<rect x="1" y="361" width="98" height="98" rx="19" fill="white" stroke="#FFA800" stroke-width="2"/>
<rect x="121" y="241" width="98" height="98" rx="19" fill="white" stroke="#FFA800" stroke-width="2"/>
<rect x="1.02661" y="241" width="98" height="98" rx="19" fill="white" stroke="#FFA800" stroke-width="2"/>
<rect x="121" y="121" width="98" height="98" rx="19" fill="white" stroke="#FFA800" stroke-width="2"/>
<rect x="1.02661" y="121" width="98" height="98" rx="19" fill="white" stroke="#FFA800" stroke-width="2"/>
<rect x="121.027" y="1" width="98" height="98" rx="19" fill="white" stroke="#FFA800" stroke-width="2"/>
<rect x="1.02661" y="1" width="98" height="98" rx="19" fill="white" stroke="#FFA800" stroke-width="2"/>
<rect x="241.027" y="481" width="98" height="98" rx="19" fill="white" stroke="#FFA800" stroke-width="2"/>
<rect x="241" y="601" width="98" height="98" rx="19" fill="white" stroke="#FFA800" stroke-width="2"/>
<rect x="241.027" y="361" width="98" height="98" rx="19" fill="white" stroke="#FFA800" stroke-width="2"/>
<rect x="241.027" y="241" width="98" height="98" rx="19" fill="white" stroke="#FFA800" stroke-width="2"/>
<rect x="241.027" y="121" width="98" height="98" rx="19" fill="white" stroke="#FFA800" stroke-width="2"/>
<rect x="241.027" y="1" width="98" height="98" rx="19" fill="white" stroke="#FFA800" stroke-width="2"/>
<rect x="361.027" y="481" width="98" height="98" rx="19" fill="white" stroke="#FFA800" stroke-width="2"/>
<rect x="361.027" y="601" width="98" height="98" rx="19" fill="white" stroke="#FFA800" stroke-width="2"/>
<rect x="361" y="361" width="98" height="98" rx="19" fill="white" stroke="#FFA800" stroke-width="2"/>
<rect x="361" y="241" width="98" height="98" rx="19" fill="white" stroke="#FFA800" stroke-width="2"/>
<rect x="361" y="121" width="98" height="98" rx="19" fill="white" stroke="#FFA800" stroke-width="2"/>
<rect x="361" y="1" width="98" height="98" rx="19" fill="white" stroke="#FFA800" stroke-width="2"/>
<rect x="481" y="481" width="98" height="98" rx="19" fill="white" stroke="#FFA800" stroke-width="2"/>
<rect x="481" y="601" width="98" height="98" rx="19" fill="white" stroke="#FFA800" stroke-width="2"/>
<rect x="481.027" y="361" width="98" height="98" rx="19" fill="white" stroke="#FFA800" stroke-width="2"/>
<rect x="481" y="241" width="98" height="98" rx="19" fill="white" stroke="#FFA800" stroke-width="2"/>
<rect x="481.027" y="121" width="98" height="98" rx="19" fill="white" stroke="#FFA800" stroke-width="2"/>
<rect x="481" y="1" width="98" height="98" rx="19" fill="white" stroke="#FFA800" stroke-width="2"/>
<rect x="601" y="481" width="98" height="98" rx="19" fill="white" stroke="#FFA800" stroke-width="2"/>
<rect x="601.027" y="601" width="98" height="98" rx="19" fill="white" stroke="#FFA800" stroke-width="2"/>
<rect x="601.027" y="361" width="98" height="98" rx="19" fill="white" stroke="#FFA800" stroke-width="2"/>
<rect x="601.027" y="241" width="98" height="98" rx="19" fill="white" stroke="#FFA800" stroke-width="2"/>
<rect x="601.027" y="121" width="98" height="98" rx="19" fill="white" stroke="#FFA800" stroke-width="2"/>
<rect x="601" y="1" width="98" height="98" rx="19" fill="white" stroke="#FFA800" stroke-width="2"/>
<path d="M45.9772 412.013C46.841 413.169 47.9431 414.126 49.2086 414.818C50.4741 415.51 51.8735 415.922 53.312 416.025C54.7504 416.128 56.1941 415.92 57.5452 415.416C58.8964 414.911 60.1233 414.122 61.1429 413.101L67.1769 407.06C69.0088 405.162 70.0225 402.619 69.9996 399.979C69.9767 397.34 68.919 394.815 67.0544 392.949C65.1898 391.082 62.6674 390.023 60.0306 390C57.3937 389.977 54.8534 390.992 52.9566 392.826L49.4971 396.269" stroke="#FFA800" stroke-width="2" stroke-linecap="round" stroke-linejoin="round"/>
<path d="M54.0227 407.987C53.1589 406.831 52.0569 405.874 50.7914 405.182C49.5259 404.49 48.1264 404.079 46.688 403.975C45.2496 403.872 43.8059 404.08 42.4547 404.585C41.1036 405.089 39.8766 405.879 38.8571 406.9L32.8231 412.94C30.9911 414.838 29.9775 417.381 30.0004 420.021C30.0233 422.66 31.081 425.185 32.9456 427.052C34.8102 428.918 37.3325 429.977 39.9694 430C42.6062 430.023 45.1466 429.008 47.0433 427.174L50.4827 423.731" stroke="#FFA800" stroke-width="2" stroke-linecap="round" stroke-linejoin="round"/>
<path d="M405.977 52.0134C406.841 53.1693 407.943 54.1258 409.209 54.8179C410.474 55.51 411.874 55.9216 413.312 56.0247C414.75 56.1278 416.194 55.9201 417.545 55.4155C418.896 54.911 420.123 54.1215 421.143 53.1006L427.177 47.0605C429.009 45.1618 430.022 42.6189 430 39.9794C429.977 37.3399 428.919 34.815 427.054 32.9485C425.19 31.082 422.667 30.0233 420.031 30.0004C417.394 29.9774 414.853 30.9921 412.957 32.8259L409.497 36.2688" stroke="#FFA800" stroke-width="2" stroke-linecap="round" stroke-linejoin="round"/>
<path d="M414.023 47.9867C413.159 46.8308 412.057 45.8743 410.791 45.1822C409.526 44.4901 408.126 44.0785 406.688 43.9754C405.25 43.8723 403.806 44.0801 402.455 44.5846C401.104 45.0891 399.877 45.8786 398.857 46.8995L392.823 52.9396C390.991 54.8383 389.977 57.3812 390 60.0207C390.023 62.6602 391.081 65.1851 392.946 67.0516C394.81 68.9181 397.333 69.9768 399.969 69.9997C402.606 70.0227 405.147 69.008 407.043 67.1742L410.483 63.7313" stroke="#FFA800" stroke-width="2" stroke-linecap="round" stroke-linejoin="round"/>
<path d="M645.977 532.013C646.841 533.169 647.943 534.126 649.209 534.818C650.474 535.51 651.874 535.922 653.312 536.025C654.75 536.128 656.194 535.92 657.545 535.416C658.896 534.911 660.123 534.122 661.143 533.101L667.177 527.06C669.009 525.162 670.022 522.619 670 519.979C669.977 517.34 668.919 514.815 667.054 512.949C665.19 511.082 662.667 510.023 660.031 510C657.394 509.977 654.853 510.992 652.957 512.826L649.497 516.269" stroke="#FFA800" stroke-width="2" stroke-linecap="round" stroke-linejoin="round"/>
<path d="M654.023 527.987C653.159 526.831 652.057 525.874 650.791 525.182C649.526 524.49 648.126 524.079 646.688 523.975C645.25 523.872 643.806 524.08 642.455 524.585C641.104 525.089 639.877 525.879 638.857 526.9L632.823 532.94C630.991 534.838 629.977 537.381 630 540.021C630.023 542.66 631.081 545.185 632.946 547.052C634.81 548.918 637.333 549.977 639.969 550C642.606 550.023 645.147 549.008 647.043 547.174L650.483 543.731" stroke="#FFA800" stroke-width="2" stroke-linecap="round" stroke-linejoin="round"/>
<path d="M294.167 644.375V650.417H299.583C300 650.417 300.208 650.833 300.208 651.25L299.375 655.208C299.375 655.417 298.958 655.625 298.75 655.625H294.167V670.833H287.917V655.833H284.375C283.958 655.833 283.75 655.625 283.75 655.208V651.25C283.75 650.833 283.958 650.625 284.375 650.625H287.917V643.75C287.917 640.208 290.625 637.5 294.167 637.5H299.792C300.208 637.5 300.417 637.708 300.417 638.125V643.125C300.417 643.542 300.208 643.75 299.792 643.75H294.792C294.375 643.75 294.167 643.958 294.167 644.375Z" stroke="#FFA800" stroke-width="2" stroke-miterlimit="10" stroke-linecap="round"/>
<path d="M296.25 670.833H283.75C273.333 670.833 269.167 666.667 269.167 656.25V643.75C269.167 633.333 273.333 629.167 283.75 629.167H296.25C306.667 629.167 310.833 633.333 310.833 643.75V656.25C310.833 666.667 306.667 670.833 296.25 670.833Z" stroke="#FFA800" stroke-width="2" stroke-linecap="round" stroke-linejoin="round"/>
<path d="M414.167 164.375V170.417H419.583C420 170.417 420.208 170.833 420.208 171.25L419.375 175.208C419.375 175.417 418.958 175.625 418.75 175.625H414.167V190.833H407.917V175.833H404.375C403.958 175.833 403.75 175.625 403.75 175.208V171.25C403.75 170.833 403.958 170.625 404.375 170.625H407.917V163.75C407.917 160.208 410.625 157.5 414.167 157.5H419.792C420.208 157.5 420.417 157.708 420.417 158.125V163.125C420.417 163.542 420.208 163.75 419.792 163.75H414.792C414.375 163.75 414.167 163.958 414.167 164.375Z" stroke="#FFA800" stroke-width="2" stroke-miterlimit="10" stroke-linecap="round"/>
<path d="M416.25 190.833H403.75C393.333 190.833 389.167 186.667 389.167 176.25V163.75C389.167 153.333 393.333 149.167 403.75 149.167H416.25C426.667 149.167 430.833 153.333 430.833 163.75V176.25C430.833 186.667 426.667 190.833 416.25 190.833Z" stroke="#FFA800" stroke-width="2" stroke-linecap="round" stroke-linejoin="round"/>
<path d="M534.167 644.375V650.417H539.583C540 650.417 540.208 650.833 540.208 651.25L539.375 655.208C539.375 655.417 538.958 655.625 538.75 655.625H534.167V670.833H527.917V655.833H524.375C523.958 655.833 523.75 655.625 523.75 655.208V651.25C523.75 650.833 523.958 650.625 524.375 650.625H527.917V643.75C527.917 640.208 530.625 637.5 534.167 637.5H539.792C540.208 637.5 540.417 637.708 540.417 638.125V643.125C540.417 643.542 540.208 643.75 539.792 643.75H534.792C534.375 643.75 534.167 643.958 534.167 644.375Z" stroke="#FFA800" stroke-width="2" stroke-miterlimit="10" stroke-linecap="round"/>
<path d="M536.25 670.833H523.75C513.333 670.833 509.167 666.667 509.167 656.25V643.75C509.167 633.333 513.333 629.167 523.75 629.167H536.25C546.667 629.167 550.833 633.333 550.833 643.75V656.25C550.833 666.667 546.667 670.833 536.25 670.833Z" stroke="#FFA800" stroke-width="2" stroke-linecap="round" stroke-linejoin="round"/>
<path d="M420.417 426.667H399.583C393.333 426.667 389.167 422.5 389.167 416.25V403.75C389.167 397.5 393.333 393.333 399.583 393.333H420.417C426.667 393.333 430.833 397.5 430.833 403.75V416.25C430.833 422.5 426.667 426.667 420.417 426.667Z" stroke="#FFA800" stroke-width="2" stroke-miterlimit="10" stroke-linecap="round" stroke-linejoin="round"/>
<path d="M408.75 404.792L413.958 407.917C415.833 409.167 415.833 411.042 413.958 412.292L408.75 415.417C406.667 416.667 405 415.625 405 413.333V407.083C405 404.375 406.667 403.542 408.75 404.792Z" stroke="#FFA800" stroke-width="2" stroke-miterlimit="10" stroke-linecap="round" stroke-linejoin="round"/>
<path d="M180.417 306.667H159.583C153.333 306.667 149.167 302.5 149.167 296.25V283.75C149.167 277.5 153.333 273.333 159.583 273.333H180.417C186.667 273.333 190.833 277.5 190.833 283.75V296.25C190.833 302.5 186.667 306.667 180.417 306.667Z" stroke="#FFA800" stroke-width="2" stroke-miterlimit="10" stroke-linecap="round" stroke-linejoin="round"/>
<path d="M168.75 284.792L173.958 287.917C175.833 289.167 175.833 291.042 173.958 292.292L168.75 295.417C166.667 296.667 165 295.625 165 293.333V287.083C165 284.375 166.667 283.542 168.75 284.792Z" stroke="#FFA800" stroke-width="2" stroke-miterlimit="10" stroke-linecap="round" stroke-linejoin="round"/>
<path d="M660.417 66.6666H639.583C633.333 66.6666 629.167 62.4999 629.167 56.2499V43.7499C629.167 37.4999 633.333 33.3333 639.583 33.3333H660.417C666.667 33.3333 670.833 37.4999 670.833 43.7499V56.2499C670.833 62.4999 666.667 66.6666 660.417 66.6666Z" stroke="#FFA800" stroke-width="2" stroke-miterlimit="10" stroke-linecap="round" stroke-linejoin="round"/>
<path d="M648.75 44.7916L653.958 47.9166C655.833 49.1666 655.833 51.0416 653.958 52.2916L648.75 55.4166C646.667 56.6666 645 55.625 645 53.3333V47.0833C645 44.375 646.667 43.5416 648.75 44.7916Z" stroke="#FFA800" stroke-width="2" stroke-miterlimit="10" stroke-linecap="round" stroke-linejoin="round"/>
<path d="M163.75 190.833H176.25C186.667 190.833 190.833 186.667 190.833 176.25V163.75C190.833 153.333 186.667 149.167 176.25 149.167H163.75C153.333 149.167 149.167 153.333 149.167 163.75V176.25C149.167 186.667 153.333 190.833 163.75 190.833Z" stroke="#FFA800" stroke-width="2" stroke-linecap="round" stroke-linejoin="round"/>
<path d="M170 177.292C174.027 177.292 177.292 174.027 177.292 170C177.292 165.973 174.027 162.708 170 162.708C165.973 162.708 162.708 165.973 162.708 170C162.708 174.027 165.973 177.292 170 177.292Z" stroke="#FFA800" stroke-width="2" stroke-linecap="round" stroke-linejoin="round"/>
<path d="M181.742 159.583H181.766" stroke="#FFA800" stroke-width="2" stroke-linecap="round" stroke-linejoin="round"/>
<path d="M523.75 310.833H536.25C546.667 310.833 550.833 306.667 550.833 296.25V283.75C550.833 273.333 546.667 269.167 536.25 269.167H523.75C513.333 269.167 509.167 273.333 509.167 283.75V296.25C509.167 306.667 513.333 310.833 523.75 310.833Z" stroke="#FFA800" stroke-width="2" stroke-linecap="round" stroke-linejoin="round"/>
<path d="M530 297.292C534.027 297.292 537.292 294.027 537.292 290C537.292 285.973 534.027 282.708 530 282.708C525.973 282.708 522.708 285.973 522.708 290C522.708 294.027 525.973 297.292 530 297.292Z" stroke="#FFA800" stroke-width="2" stroke-linecap="round" stroke-linejoin="round"/>
<path d="M541.742 279.583H541.766" stroke="#FFA800" stroke-width="2" stroke-linecap="round" stroke-linejoin="round"/>
<path d="M163.75 550.833H176.25C186.667 550.833 190.833 546.667 190.833 536.25V523.75C190.833 513.333 186.667 509.167 176.25 509.167H163.75C153.333 509.167 149.167 513.333 149.167 523.75V536.25C149.167 546.667 153.333 550.833 163.75 550.833Z" stroke="#FFA800" stroke-width="2" stroke-linecap="round" stroke-linejoin="round"/>
<path d="M170 537.292C174.027 537.292 177.292 534.027 177.292 530C177.292 525.973 174.027 522.708 170 522.708C165.973 522.708 162.708 525.973 162.708 530C162.708 534.027 165.973 537.292 170 537.292Z" stroke="#FFA800" stroke-width="2" stroke-linecap="round" stroke-linejoin="round"/>
<path d="M181.742 519.583H181.766" stroke="#FFA800" stroke-width="2" stroke-linecap="round" stroke-linejoin="round"/>
</svg>
