<svg width="134" height="33" viewBox="0 0 134 33" fill="none" xmlns="http://www.w3.org/2000/svg">
<mask id="mask0_835_62619" style="mask-type:alpha" maskUnits="userSpaceOnUse" x="0" y="0" width="32" height="33">
<rect x="1.5" y="2.26978" width="29" height="29" fill="white" stroke="#FF9900" stroke-width="3"/>
</mask>
<g mask="url(#mask0_835_62619)">
<path d="M16 16.6771C16.4248 16.1093 16.9667 15.6394 17.589 15.2994C18.2113 14.9594 18.8995 14.7572 19.6068 14.7065C20.3142 14.6559 21.0241 14.7579 21.6886 15.0058C22.353 15.2536 22.9563 15.6415 23.4577 16.143L26.425 19.1103C27.3258 20.043 27.8243 21.2922 27.813 22.5889C27.8017 23.8856 27.2816 25.1259 26.3647 26.0429C25.4478 26.9598 24.2074 27.4799 22.9107 27.4911C21.6141 27.5024 20.3648 27.0039 19.4321 26.1031L17.7309 24.4118" stroke="#FF9900" stroke-width="3" stroke-linecap="round" stroke-linejoin="round"/>
<path d="M16 16.6772C15.5752 17.245 15.0333 17.7149 14.4109 18.0549C13.7886 18.3949 13.1004 18.5971 12.3931 18.6478C11.6858 18.6984 10.9758 18.5964 10.3114 18.3485C9.64696 18.1007 9.04361 17.7128 8.54226 17.2113L5.57501 14.244C4.67416 13.3113 4.17569 12.0621 4.18695 10.7654C4.19822 9.46874 4.71833 8.22837 5.63525 7.31144C6.55217 6.39452 7.79254 5.87442 9.08922 5.86315C10.3859 5.85188 11.6351 6.35035 12.5678 7.2512L14.2592 8.94254" stroke="#FF9900" stroke-width="3" stroke-linecap="round" stroke-linejoin="round"/>
<path d="M13.2024 13.8796L18.7975 19.4747" stroke="#FF9900" stroke-width="3" stroke-linecap="round" stroke-linejoin="round"/>
</g>
<path d="M43.3516 19.7151C43.4062 20.6917 43.6367 21.4846 44.043 22.094C44.8164 23.2346 46.1797 23.8049 48.1328 23.8049C49.0078 23.8049 49.8047 23.6799 50.5234 23.4299C51.9141 22.9456 52.6094 22.0784 52.6094 20.8284C52.6094 19.8909 52.3164 19.2229 51.7305 18.8245C51.1367 18.4338 50.207 18.094 48.9414 17.8049L46.6094 17.2776C45.0859 16.9338 44.0078 16.5549 43.375 16.1409C42.2812 15.4221 41.7344 14.3479 41.7344 12.9182C41.7344 11.3713 42.2695 10.1018 43.3398 9.10962C44.4102 8.11743 45.9258 7.62134 47.8867 7.62134C49.6914 7.62134 51.2227 8.05884 52.4805 8.93384C53.7461 9.80103 54.3789 11.1917 54.3789 13.1057H52.1875C52.0703 12.1838 51.8203 11.4768 51.4375 10.9846C50.7266 10.0862 49.5195 9.63696 47.8164 9.63696C46.4414 9.63696 45.4531 9.92603 44.8516 10.5042C44.25 11.0823 43.9492 11.7542 43.9492 12.5198C43.9492 13.3635 44.3008 13.9807 45.0039 14.3713C45.4648 14.6213 46.5078 14.9338 48.1328 15.3088L50.5469 15.8596C51.7109 16.1252 52.6094 16.4885 53.2422 16.9495C54.3359 17.7542 54.8828 18.9221 54.8828 20.4534C54.8828 22.3596 54.1875 23.7229 52.7969 24.5432C51.4141 25.3635 49.8047 25.7737 47.9688 25.7737C45.8281 25.7737 44.1523 25.2268 42.9414 24.1331C41.7305 23.0471 41.1367 21.5745 41.1602 19.7151H43.3516ZM57.9766 9.21509H60.1094V12.719H62.1133V14.4417H60.1094V22.6331C60.1094 23.0706 60.2578 23.3635 60.5547 23.512C60.7188 23.5979 60.9922 23.6409 61.375 23.6409C61.4766 23.6409 61.5859 23.6409 61.7031 23.6409C61.8203 23.6331 61.957 23.6213 62.1133 23.6057V25.2698C61.8711 25.3401 61.6172 25.3909 61.3516 25.4221C61.0938 25.4534 60.8125 25.469 60.5078 25.469C59.5234 25.469 58.8555 25.219 58.5039 24.719C58.1523 24.2112 57.9766 23.5549 57.9766 22.7502V14.4417H56.2773V12.719H57.9766V9.21509ZM69.2148 23.9104C70.6133 23.9104 71.5703 23.3831 72.0859 22.3284C72.6094 21.2659 72.8711 20.0862 72.8711 18.7893C72.8711 17.6174 72.6836 16.6643 72.3086 15.9299C71.7148 14.7737 70.6914 14.1956 69.2383 14.1956C67.9492 14.1956 67.0117 14.6877 66.4258 15.6721C65.8398 16.6565 65.5469 17.844 65.5469 19.2346C65.5469 20.5706 65.8398 21.6838 66.4258 22.5745C67.0117 23.4651 67.9414 23.9104 69.2148 23.9104ZM69.2969 12.3557C70.9141 12.3557 72.2812 12.8948 73.3984 13.9729C74.5156 15.051 75.0742 16.637 75.0742 18.7307C75.0742 20.7542 74.582 22.426 73.5977 23.7463C72.6133 25.0667 71.0859 25.7268 69.0156 25.7268C67.2891 25.7268 65.918 25.1448 64.9023 23.9807C63.8867 22.8088 63.3789 21.2385 63.3789 19.2698C63.3789 17.1604 63.9141 15.4807 64.9844 14.2307C66.0547 12.9807 67.4922 12.3557 69.2969 12.3557ZM77.6523 12.719H79.6562V14.887C79.8203 14.4651 80.2227 13.9534 80.8633 13.3518C81.5039 12.7424 82.2422 12.4377 83.0781 12.4377C83.1172 12.4377 83.1836 12.4417 83.2773 12.4495C83.3711 12.4573 83.5312 12.4729 83.7578 12.4963V14.7229C83.6328 14.6995 83.5156 14.6838 83.4062 14.676C83.3047 14.6682 83.1914 14.6643 83.0664 14.6643C82.0039 14.6643 81.1875 15.0081 80.6172 15.6956C80.0469 16.3752 79.7617 17.1604 79.7617 18.051V25.2698H77.6523V12.719ZM87.2031 21.9299C87.2031 22.5393 87.4258 23.0198 87.8711 23.3713C88.3164 23.7229 88.8438 23.8987 89.4531 23.8987C90.1953 23.8987 90.9141 23.7268 91.6094 23.3831C92.7812 22.8127 93.3672 21.8792 93.3672 20.5823V18.8831C93.1094 19.0471 92.7773 19.1838 92.3711 19.2932C91.9648 19.4026 91.5664 19.4807 91.1758 19.5276L89.8984 19.6917C89.1328 19.7932 88.5586 19.9534 88.1758 20.1721C87.5273 20.5393 87.2031 21.1252 87.2031 21.9299ZM92.3125 17.6643C92.7969 17.6018 93.1211 17.3987 93.2852 17.0549C93.3789 16.8674 93.4258 16.5979 93.4258 16.2463C93.4258 15.5276 93.168 15.0081 92.6523 14.6877C92.1445 14.3596 91.4141 14.1956 90.4609 14.1956C89.3594 14.1956 88.5781 14.4924 88.1172 15.0862C87.8594 15.4143 87.6914 15.9026 87.6133 16.551H85.6445C85.6836 15.0042 86.1836 13.9299 87.1445 13.3284C88.1133 12.719 89.2344 12.4143 90.5078 12.4143C91.9844 12.4143 93.1836 12.6956 94.1055 13.2581C95.0195 13.8206 95.4766 14.6956 95.4766 15.8831V23.1135C95.4766 23.3323 95.5195 23.5081 95.6055 23.6409C95.6992 23.7737 95.8906 23.8401 96.1797 23.8401C96.2734 23.8401 96.3789 23.8362 96.4961 23.8284C96.6133 23.8127 96.7383 23.7932 96.8711 23.7698V25.3284C96.543 25.4221 96.293 25.4807 96.1211 25.5042C95.9492 25.5276 95.7148 25.5393 95.418 25.5393C94.6914 25.5393 94.1641 25.2815 93.8359 24.7659C93.6641 24.4924 93.543 24.1057 93.4727 23.6057C93.043 24.1682 92.4258 24.6565 91.6211 25.0706C90.8164 25.4846 89.9297 25.6917 88.9609 25.6917C87.7969 25.6917 86.8438 25.3401 86.1016 24.637C85.3672 23.926 85 23.0393 85 21.9768C85 20.8127 85.3633 19.9104 86.0898 19.2698C86.8164 18.6292 87.7695 18.2346 88.9492 18.0862L92.3125 17.6643ZM99.0039 8.05493H101.113V25.2698H99.0039V8.05493ZM104.289 12.7776H106.434V25.2698H104.289V12.7776ZM104.289 8.05493H106.434V10.4456H104.289V8.05493ZM109.633 12.719H111.637V14.5002C112.23 13.7659 112.859 13.2385 113.523 12.9182C114.188 12.5979 114.926 12.4377 115.738 12.4377C117.52 12.4377 118.723 13.0588 119.348 14.301C119.691 14.9807 119.863 15.9534 119.863 17.219V25.2698H117.719V17.3596C117.719 16.594 117.605 15.9768 117.379 15.5081C117.004 14.7268 116.324 14.3362 115.34 14.3362C114.84 14.3362 114.43 14.387 114.109 14.4885C113.531 14.6604 113.023 15.0042 112.586 15.5198C112.234 15.9338 112.004 16.3635 111.895 16.8088C111.793 17.2463 111.742 17.8752 111.742 18.6956V25.2698H109.633V12.719ZM122.945 8.05493H124.973V18.051L130.387 12.719H133.082L128.277 17.4182L133.352 25.2698H130.656L126.742 18.9417L124.973 20.5588V25.2698H122.945V8.05493Z" fill="#FF9900"/>
</svg>
