<svg width="24" height="25" viewBox="0 0 24 25" fill="none" xmlns="http://www.w3.org/2000/svg">
<g clip-path="url(#clip0_1281_20700)">
<path d="M21.75 0.771144H2.25C1.80756 0.766641 1.3814 0.93784 1.06504 1.24717C0.74867 1.55651 0.56794 1.97871 0.5625 2.42114V21.9999C0.568923 22.4417 0.750087 22.8629 1.06634 23.1714C1.3826 23.48 1.8082 23.6507 2.25 23.6461H21.75C22.1925 23.6497 22.6183 23.4779 22.9345 23.1683C23.2507 22.8588 23.4316 22.4367 23.4375 21.9943V2.41552C23.4296 1.97439 23.2479 1.55419 22.9319 1.24628C22.6159 0.938365 22.1912 0.767615 21.75 0.771144Z" fill="#0076B2"/>
<path d="M3.94871 9.34552H7.34434V20.2711H3.94871V9.34552ZM5.64746 3.90802C6.03692 3.90802 6.41764 4.02353 6.74144 4.23994C7.06523 4.45636 7.31757 4.76394 7.46653 5.1238C7.61548 5.48365 7.65436 5.87959 7.57824 6.26154C7.50213 6.6435 7.31444 6.99429 7.03891 7.26955C6.76339 7.54481 6.41242 7.73217 6.0304 7.80792C5.64837 7.88367 5.25246 7.84442 4.89275 7.69512C4.53304 7.54582 4.2257 7.29319 4.00959 6.96918C3.79349 6.64518 3.67834 6.26436 3.67871 5.87489C3.67921 5.35307 3.88685 4.8528 4.25601 4.48399C4.62517 4.11518 5.12564 3.90802 5.64746 3.90802ZM9.47434 9.34552H12.7293V10.8455H12.7743C13.2281 9.98677 14.3343 9.08114 15.9862 9.08114C19.425 9.07364 20.0625 11.3368 20.0625 14.2711V20.2711H16.6668V14.9555C16.6668 13.6899 16.6443 12.0605 14.9025 12.0605C13.1606 12.0605 12.8643 13.4405 12.8643 14.873V20.2711H9.47434V9.34552Z" fill="white"/>
</g>
<defs>
<clipPath id="clip0_1281_20700">
<rect width="24" height="24" fill="white" transform="translate(0 0.208618)"/>
</clipPath>
</defs>
</svg>
