<svg width="136" height="137" viewBox="0 0 136 137" fill="none" xmlns="http://www.w3.org/2000/svg">
<g filter="url(#filter0_d_840_16105)">
<rect x="36" y="36.1079" width="48" height="48" rx="24" fill="#FF9900" shape-rendering="crispEdges"/>
<rect x="36" y="36.1079" width="48" height="48" rx="24" stroke="white" stroke-width="8" shape-rendering="crispEdges"/>
<path d="M66.0001 55.2679C65.9401 55.2579 65.8701 55.2579 65.8101 55.2679C64.4301 55.2179 63.3301 54.0879 63.3301 52.6879C63.3301 51.2579 64.4801 50.1079 65.9101 50.1079C67.3401 50.1079 68.4901 51.2679 68.4901 52.6879C68.4801 54.0879 67.3801 55.2179 66.0001 55.2679Z" stroke="white" stroke-width="2" stroke-linecap="round" stroke-linejoin="round"/>
<path d="M64.9702 62.5478C66.3402 62.7778 67.8502 62.5378 68.9102 61.8278C70.3202 60.8878 70.3202 59.3478 68.9102 58.4078C67.8402 57.6978 66.3102 57.4578 64.9402 57.6978" stroke="white" stroke-width="2" stroke-linecap="round" stroke-linejoin="round"/>
<path d="M53.97 55.2679C54.03 55.2579 54.1 55.2579 54.16 55.2679C55.54 55.2179 56.64 54.0879 56.64 52.6879C56.64 51.2579 55.49 50.1079 54.06 50.1079C52.63 50.1079 51.48 51.2679 51.48 52.6879C51.49 54.0879 52.59 55.2179 53.97 55.2679Z" stroke="white" stroke-width="2" stroke-linecap="round" stroke-linejoin="round"/>
<path d="M54.9999 62.5478C53.6299 62.7778 52.1199 62.5378 51.0599 61.8278C49.6499 60.8878 49.6499 59.3478 51.0599 58.4078C52.1299 57.6978 53.6599 57.4578 55.0299 57.6978" stroke="white" stroke-width="2" stroke-linecap="round" stroke-linejoin="round"/>
<path d="M60.0001 62.7379C59.9401 62.7279 59.8701 62.7279 59.8101 62.7379C58.4301 62.6879 57.3301 61.5579 57.3301 60.1579C57.3301 58.7279 58.4801 57.5779 59.9101 57.5779C61.3401 57.5779 62.4901 58.7379 62.4901 60.1579C62.4801 61.5579 61.3801 62.6979 60.0001 62.7379Z" stroke="white" stroke-width="2" stroke-linecap="round" stroke-linejoin="round"/>
<path d="M57.09 65.8878C55.68 66.8278 55.68 68.3678 57.09 69.3078C58.69 70.3778 61.31 70.3778 62.91 69.3078C64.32 68.3678 64.32 66.8278 62.91 65.8878C61.32 64.8278 58.69 64.8278 57.09 65.8878Z" stroke="white" stroke-width="2" stroke-linecap="round" stroke-linejoin="round"/>
</g>
<defs>
<filter id="filter0_d_840_16105" x="0" y="0.10791" width="136" height="136" filterUnits="userSpaceOnUse" color-interpolation-filters="sRGB">
<feFlood flood-opacity="0" result="BackgroundImageFix"/>
<feColorMatrix in="SourceAlpha" type="matrix" values="0 0 0 0 0 0 0 0 0 0 0 0 0 0 0 0 0 0 127 0" result="hardAlpha"/>
<feOffset dx="8" dy="8"/>
<feGaussianBlur stdDeviation="20"/>
<feComposite in2="hardAlpha" operator="out"/>
<feColorMatrix type="matrix" values="0 0 0 0 1 0 0 0 0 0.66 0 0 0 0 0 0 0 0 0.2 0"/>
<feBlend mode="normal" in2="BackgroundImageFix" result="effect1_dropShadow_840_16105"/>
<feBlend mode="normal" in="SourceGraphic" in2="effect1_dropShadow_840_16105" result="shape"/>
</filter>
</defs>
</svg>
